<svg xmlns="http://www.w3.org/2000/svg" xmlns:xlink="http://www.w3.org/1999/xlink" width="100%" height="100%" viewBox="0 0 425.2 425.2"><defs><radialGradient id="A" cx="147.6" cy="143.85" r="335.38" gradientUnits="userSpaceOnUse"><stop offset="0" stop-color="#004c99"/><stop offset="1" stop-color="#002856"/></radialGradient><linearGradient id="B" x1="182.29" y1="222.86" x2="182.29" y2="126.78" gradientUnits="userSpaceOnUse"><stop offset="0" stop-color="#fbba00" stop-opacity="0"/><stop offset=".2" stop-color="#fbba00" stop-opacity="0"/><stop offset="1" stop-color="#fbba00"/></linearGradient><linearGradient id="C" x1="165.15" y1="198.91" x2="165.15" y2="106.26" gradientUnits="userSpaceOnUse"><stop offset="0" stop-color="#fff" stop-opacity="0"/><stop offset=".2" stop-color="#fff" stop-opacity="0"/><stop offset="1" stop-color="#fff"/></linearGradient><linearGradient id="D" x1="242.98" y1="87.33" x2="242.98" y2="179.62" gradientUnits="userSpaceOnUse"><stop offset="0" stop-color="#009e9c" stop-opacity="0"/><stop offset=".2" stop-color="#009e9c" stop-opacity="0"/><stop offset="1" stop-color="#009e9c"/></linearGradient><linearGradient id="E" x1="260.02" y1="110.72" x2="260.02" y2="203.74" xlink:href="#C"/></defs><path d="M0 0h425.2v425.2H0z" fill="url(#A)"/><path d="M371.48 366.51l-20.72-28.78c21.71-2.11 29.91-44-11.24-43.9h-34.23c-2.63-.18-4.45 1.54-4.36 4.5v68.41a4 4 0 0 0 3.93 4h10.4a4.06 4.06 0 0 0 4-4v-58.53c29.84-1.71 28.91 4.4 29.7 10.19.26 14.41-20.1 13.31-20.1 13.31v1.64L350 368.27h0a5.2 5.2 0 0 0 4.48 2.44h0 0 14.66c2.95.01 3.51-2.6 2.34-4.2zM196.61 306.3l4.11-8.57c1.44-2.79-.07-4-2.48-3.93h-60.91a5.52 5.52 0 0 0-4.81 2.95l-4.23 8.82c-1.6 3.4-.3 4.14 2.5 4h22.32v57.14s.16 4 3.91 4h10.4c3.93 0 4-4 4-4v-57.14h20.33a5.28 5.28 0 0 0 4.86-3.27zm51.91-10.51a4 4 0 0 0-3.68-2.51h0 0-7.95 0a3.91 3.91 0 0 0-3.55 2.23h0l-35 69.34c-1.12 2.18-.78 5.84 3.82 5.84h9.65a3.47 3.47 0 0 0 3.53-2.08l6-12.26h39.23l6.13 12.36h0a3.27 3.27 0 0 0 3.32 2h10.16c3.16 0 4.75-3.13 3.41-5.9zm-20.63 47.6l13.31-27.34 13.34 27.34zm-117.48-12.08c-4.89-3.59-14.35-6.72-28.37-9.53-5.93-1.23-8.75-3-8.71-7.06 0-2 1.4-4 4.2-5.23S83.94 308 88.25 308s9.26 1.42 14.63 4h.06a3.53 3.53 0 0 0 4.62-1.48h0l4.42-8.43h0a3.18 3.18 0 0 0-1.57-4.39 57.33 57.33 0 0 0-22.51-5.06c-25.49-.23-32.92 15.6-32.55 23.11-.24 11.43 7.44 19 22.95 22.43l11.7 2.71c6.38 1.43 9.48 3.69 9.37 7.84-.07 2.34-1.49 4.25-4.26 5.79a21.44 21.44 0 0 1-10.59 2.15c-7.52-.16-12.51-2-18.57-7a3.43 3.43 0 0 0-5 .29h0L54 357.23a3 3 0 0 0 .27 4.39c7.83 6.75 17.55 10.17 29.24 10.42 10 .21 18.13-1.91 24.47-6.49s9.49-10.61 9.65-18.17c.15-7.17-2.25-12.48-7.22-16.07z" fill="#fff"/><g fill-rule="evenodd"><path d="M70.56 191.34c-7.79-11.87-11.85-22.94-12.1-33.17-.25-10.58 3-20.69 9.63-30.4s15.7-17.47 27.31-23.56q31.5-16.54 86.87-17.84c15.34-.36 55.7 1.33 89.57 15l39.59-26.41Q268 51.75 208.3 53.23 140.74 54.87 96.1 85q-43.87 29.75-42.93 70.11c.3 12.56 4.08 24.73 11.49 36.49s17.53 22 30.57 30.63l3.64-2.6h0a94.58 94.58 0 0 1-28.31-28.29z" fill="url(#B)"/><path d="M92.52 154.06c-.19-8.34 2.5-16.56 8.14-24.72s13.46-15.08 23.55-21.07q25.64-15 65.73-16a219.07 219.07 0 0 1 77.45 12l4.45-2.94C238 87.7 197.61 86 182.27 86.37Q127 87.72 95.4 104.21q-17.4 9.14-27.31 23.56c-6.67 9.71-9.88 19.82-9.63 30.4.25 10.23 4.31 21.3 12.1 33.17a94.58 94.58 0 0 0 28.31 28.29h0l27.67-20.59c-22.29-12.27-33.6-27.22-34.02-44.98z" fill="url(#C)"/><path d="M354.49,118.2c7.88,11.87,11.88,22.92,12.15,33.15q.41,16-9.49,30.42c-6.58,9.65-15.74,17.5-27.34,23.64q-31.49,16.56-86.75,18c-15.33.4-55.79-1.22-89.68-14.71l-39.46,26.41q43.3,23.1,103.18,21.58,67.41-1.76,112-32.1,43.94-29.82,42.88-70.19-.5-18.84-11.57-36.47T329.75,87.33L326.21,90v0A92.42,92.42,0,0,1,354.49,118.2Z" fill="url(#D)"/><path d="M332.61 155.52c.22 8.35-2.49 16.65-8 24.75s-13.43 15.17-23.51 21.1q-25.72 15.07-65.79 16.17a217.8 217.8 0 0 1-77.37-11.9l-4.53 3c33.89 13.49 74.35 15.11 89.68 14.71q55.31-1.44 86.75-18c11.6-6.14 20.76-14 27.34-23.64s9.76-19.76 9.49-30.42c-.27-10.23-4.27-21.28-12.15-33.15a92.42 92.42 0 0 0-28.28-28.15h0l-27.64 20.55q33.32 18.46 34.01 44.98z" fill="url(#E)"/></g></svg>
