<?xml version="1.0" standalone="no"?>
<!DOCTYPE svg PUBLIC "-//W3C//DTD SVG 20010904//EN"
 "http://www.w3.org/TR/2001/REC-SVG-20010904/DTD/svg10.dtd">
<svg version="1.0" xmlns="http://www.w3.org/2000/svg"
 width="177.000000pt" height="177.000000pt" viewBox="0 0 177.000000 177.000000"
 preserveAspectRatio="xMidYMid meet">
<metadata>
Created by potrace 1.11, written by Peter Selinger 2001-2013
</metadata>
<g transform="translate(0.000000,177.000000) scale(0.100000,-0.100000)"
fill="#000000" stroke="none">
<path d="M622 1596 c-51 -4 -92 -9 -90 -11 2 -1 55 -5 118 -8 63 -3 131 -9
150 -12 19 -3 44 -8 55 -10 338 -57 633 -309 786 -670 51 -118 50 -118 45 -30
-3 44 -14 115 -26 159 -113 419 -493 633 -1038 582z"/>
<path d="M715 1463 c-69 -36 -176 -145 -213 -219 -49 -96 -65 -167 -66 -279 0
-79 5 -115 24 -174 26 -81 107 -212 147 -238 29 -19 139 -42 204 -43 l46 0
-13 58 c-26 108 -35 287 -21 402 15 127 82 354 131 445 19 37 14 41 -90 60
-95 19 -89 19 -149 -12z"/>
<path d="M515 1460 c-100 -26 -176 -56 -287 -113 -113 -57 -108 -32 -46 -222
62 -189 166 -385 239 -451 20 -18 20 -17 -1 36 -41 102 -52 168 -47 285 7 178
62 307 181 426 32 33 52 59 45 58 -8 0 -45 -8 -84 -19z"/>
<path d="M1095 1361 c6 -28 4 -31 -18 -31 -58 0 -101 -73 -78 -132 12 -32 62
-60 99 -56 l27 3 0 -70 c0 -150 -38 -329 -100 -462 -19 -42 -33 -78 -31 -81 3
-2 79 13 170 34 l166 37 34 51 c62 95 88 189 88 324 l0 72 -55 68 c-100 122
-207 221 -280 258 l-29 16 7 -31z"/>
<path d="M51 1165 c0 -16 3 -57 9 -90 5 -33 12 -78 16 -100 11 -73 65 -229
106 -305 134 -251 348 -371 650 -364 227 6 559 109 799 249 l44 26 -70 -6
c-94 -8 -183 -27 -418 -86 -109 -28 -212 -52 -227 -54 -16 -2 -39 -6 -50 -10
-35 -11 -202 -13 -265 -3 -210 33 -378 197 -497 488 -26 61 -80 220 -91 265
-3 14 -5 11 -6 -10z"/>
<path d="M1515 904 c3 -49 -33 -173 -70 -244 l-17 -33 49 6 c26 4 80 10 118
13 39 3 72 8 74 10 6 5 -134 267 -145 271 -5 2 -9 -9 -9 -23z"/>
<path d="M1560 435 c-169 -97 -411 -182 -572 -202 -81 -10 -297 -10 -368 0
-112 16 -294 68 -362 103 -56 29 -26 -4 50 -53 186 -123 376 -175 607 -168
129 4 248 27 340 65 136 56 230 115 308 194 49 50 105 117 95 115 -2 0 -46
-25 -98 -54z"/>
</g>
</svg>
