<?xml version="1.0" standalone="no"?>
<!DOCTYPE svg PUBLIC "-//W3C//DTD SVG 20010904//EN"
 "http://www.w3.org/TR/2001/REC-SVG-20010904/DTD/svg10.dtd">
<svg version="1.0" xmlns="http://www.w3.org/2000/svg"
 width="327.000000pt" height="327.000000pt" viewBox="0 0 327.000000 327.000000"
 preserveAspectRatio="xMidYMid meet">
<metadata>
Created by potrace 1.11, written by Peter Selinger 2001-2013
</metadata>
<g transform="translate(0.000000,327.000000) scale(0.100000,-0.100000)"
fill="#000000" stroke="none">
<path d="M1130 2895 c-430 -36 -647 -101 -1001 -301 l-96 -55 -11 -72 c-21
-136 -24 -222 -12 -367 45 -569 238 -1059 534 -1356 216 -216 470 -334 789
-366 167 -16 438 2 641 43 323 66 757 231 1094 416 59 32 126 67 149 77 23 10
44 24 46 30 3 11 0 69 -22 381 -19 259 -63 455 -148 657 -198 474 -605 781
-1171 883 -259 46 -485 55 -792 30z"/>
</g>
</svg>
